<?xml version="1.0" encoding="UTF-8"?>
<svg viewBox="0 0 543.32159 397.36911" xmlns="http://www.w3.org/2000/svg" xmlns:xlink="http://www.w3.org/1999/xlink">
 <defs>
  <linearGradient id="a">
   <stop stop-color="#ede4c5" offset="0"/>
   <stop stop-color="#b8b199" offset=".3528"/>
   <stop stop-color="#ede4c5" offset="1"/>
  </linearGradient>
  <linearGradient id="j" x1="478.78" x2="485.13" y1="133.4" y2="138.96" gradientUnits="userSpaceOnUse">
   <stop stop-color="#ede4c5" offset="0"/>
   <stop stop-color="#b8b199" offset=".5"/>
   <stop stop-color="#ede4c5" offset="1"/>
  </linearGradient>
  <linearGradient id="i" x1="60.264" x2="448.73" y1="200.51" y2="141.75" gradientUnits="userSpaceOnUse">
   <stop stop-color="#e2c75c" offset="0"/>
   <stop stop-color="#aa6009" offset="1"/>
  </linearGradient>
  <linearGradient id="g" x1="34.241" x2="503.04" y1="207.6" y2="192.44" gradientUnits="userSpaceOnUse">
   <stop stop-color="#8d7142" offset="0"/>
   <stop stop-color="#765329" offset="1"/>
  </linearGradient>
  <linearGradient id="k" x1="238.25" x2="241.87" y1="180.82" y2="156.21" gradientUnits="userSpaceOnUse" xlink:href="#a"/>
  <linearGradient id="h" x1="239.5" x2="239.91" y1="209.04" y2="257.87" gradientUnits="userSpaceOnUse" xlink:href="#a"/>
  <linearGradient id="f" x1="491.88" x2="519.26" y1="212.37" y2="224.16" gradientUnits="userSpaceOnUse" xlink:href="#a"/>
  <linearGradient id="e" x1="206.66" x2="203.73" y1="250.83" y2="282.84" gradientUnits="userSpaceOnUse" xlink:href="#a"/>
  <linearGradient id="d" x1="268.14" x2="277.94" y1="301.5" y2="398.63" gradientUnits="userSpaceOnUse" xlink:href="#a"/>
  <linearGradient id="c" x1="42.724" x2="60.006" y1="300.8" y2="296.87" gradientUnits="userSpaceOnUse" xlink:href="#a"/>
  <radialGradient id="b" cx="338.64" cy="92.905" r="123.17" gradientTransform="matrix(.99981 .0828 -.03006 .363 2.8581 31.14)" gradientUnits="userSpaceOnUse">
   <stop stop-color="#2b2b35" offset="0"/>
   <stop stop-color="#072b35" offset=".8078"/>
   <stop stop-color="#0d0f12" offset="1"/>
  </radialGradient>
 </defs>
 <path d="m63.997 392.6 468.24-42.95c2.1724-21.932 3.4062-45.115 1.1229-72.987l-470.21 44.635c0.82237 19.937 2.231 57.554 0.84216 71.303z" fill="url(#d)"/>
 <path d="m30.769 178.83 33.228 144.43 0.56144 74.11-28.072-135.59z" fill="url(#c)"/>
 <path d="m31.433 170.55 446.35-12.352 60.636 118.46-475.54 44.915z" fill="#d38d5f" stroke="#ad7d42" stroke-linecap="round" stroke-linejoin="round" stroke-width="4.2"/>
 <path d="m81.402 259.25 7.2987 38.739 421.08-42.108-17.405-42.669z" fill="#f95"/>
 <path d="m31.017 171.63-4.6988 25.448 35.762 192.16 469.6-39.59" fill="none" stroke="#ad7d42" stroke-linecap="round" stroke-linejoin="round" stroke-width="4.2"/>
 <path d="m4.2036 227.67 461.22 49.266-1.965 36.634-459.54-49.407c-1.6123-11.141-3.553-22.085 0.28072-36.494z" fill="url(#e)"/>
 <path d="m537.99 125.91 1.965 39.02-77.058 149.48 1.965-37.757z" fill="url(#f)"/>
 <path d="m56.698 155.95c-2.2458 2.8072-53.898 70.18-53.898 70.18l462.07 49.407 74.672-151.03-137.55-9.5445z" fill="url(#g)" stroke="#7e5326" stroke-linecap="round" stroke-linejoin="round" stroke-width="5.6"/>
 <path d="m53.022 208.85c-5.4414 25.953 1.0159 27.445 3.3745 36.722l403.75-2.9775 0.79399-35.333z" fill="url(#h)"/>
 <path d="m55.603 155.65-4.764 52.404 410.5-2.382v-89.722z" fill="url(#i)" stroke="#8a4d0c" stroke-linecap="round" stroke-linejoin="round" stroke-width="2.9"/>
 <g transform="translate(-36.501 -9.1139)">
  <path d="m51.213 118.71 134.58-106.4 350.15 37.318-107.19 121.48z" fill="#2b2b35" stroke="#2b2b20" stroke-linecap="round" stroke-linejoin="round" stroke-width="6.4"/>
  <path d="m215.97 113.55 72.651-66.696 172.69 20.644-63.52 71.46z" fill="url(#b)" stroke="#000"/>
  <path d="m60.741 167.94 372.78 52.007 104.41-121.48-2.779-48.037" fill="none" stroke="#2b2b20" stroke-linecap="round" stroke-linejoin="round" stroke-width="6.4"/>
  <path d="m55.977 121.45c-2.7849 12.409-4.5658 26.4 4.764 45.524l371.59 50.194c-8.2513-17.51-12.166-33.427-3.573-44.746z" fill="url(#k)" stroke="#2b2b20" stroke-linecap="round" stroke-linejoin="round" stroke-width=".99"/>
  <path d="m429.01 172.09c-10.575 8.1887-2.3999 39.635 4.4145 45.028l101.97-117.52c-1.2616-3.9806-2.0862-37.629-0.0357-48.568z" fill="url(#j)" stroke="#2b2b20" stroke-linecap="round" stroke-linejoin="round"/>
  <path d="m392.43422,76.21403c.14986,1.18033-1.06879,1.73154-1.3802,2.69004-.0818.25171.0269.54039-.0549.7921-.18287.56285-.6446.99635-.90184,1.52933-1.87087,3.87627.36748-.81947-.53323,1.95281-.0915.28142-.33817.49108-.45092.76466-.0504.12235.0135.27019-.0274.39605-.12931.39799-.34904.76272-.47835,1.16071-.0409.12586.0398.28206-.0274.39605-.0951.1612-.36566.19062-.42349.36861-.12268.37757.0404.81058-.0823,1.18815-.0578.17799-.30917.22045-.42349.36861-.18076.23428-.3223.49817-.45091.76466-.1819.37687-.2658.80025-.47836,1.16071-.24236.41099-.60124.74208-.87441,1.13328-.82587,1.18268-.0564.51906-1.32533,1.89794-.25346.27542-.60224.45403-.84696.73723-.19349.22389-.25745.54078-.45092.76466-.24474.2832-.56465.49149-.84698.73723-.42348.36861-.80885.78625-1.27045,1.10584-.24329.16844-.56257.19445-.81954.34118-.16252.0928-.26096.27581-.42348.36861-.25697.14673-.59634.1469-.81954.34118-.0271.02362-.84754,1.45896-.90183,1.52933-.11433.14817-.32843.20741-.42349.36862-.0672.11399.023.2737-.0274.39605-.11277.27358-.35948.48324-.45092.76466-.0818.25172.046.5474-.0549.7921-.0713.17303-.35218.19559-.42349.36862-.10085.2447.0269.54038-.0549.7921-.67439,2.07568-.10458-.4052-1.27045,1.10584-.16167.20954-.0366.52806-.0549.79209-.0274.39605.0404.81058-.0823,1.18815-.21896.67394-.62801.0633-.84697.73723-.12268.37757-.0549.7921-.0823,1.18815-.009.13201.023.2737-.0274.39605-.11278.27358-.35949.48324-.45092.76466-.19836.61049.0612,1.36975-.13718,1.98024-.0915.28143-.33818.49109-.45092.76467-.0504.12235.0398.28206-.0274.39605-.0951.16121-.32842.20741-.42349.36862-.1417.2403.032,1.34389-.10974,1.58419-.0672.11398-.32882-.14142-.39605-.0274-.13444.22799.046.5474-.0549.7921-.0713.17303-.32842.20741-.42348.36862-.0672.11399.0724.30916-.0274.39605s-.29624-.11434-.39605-.0274 .0398.28205-.0274.39604c-.49851.84536-.25432.10587-.81954.34118-1.70535.70995.42529.002-.45092.76466-1.06968.93108-.4671.12056-1.21558.31375-.28652.074-.56257.19444-.81954.34118-.32503.1856-.50142.59336-.84697.73722-.12217.0509-.29622-.11435-.39605-.0274s.0724.30917-.0274.39605-.27387-.0783-.39604-.0274c-.17277.0719-.25071.29669-.42348.36861-.12218.0509-.29624-.11435-.39605-.0274s.0724.30918-.0274.39606-.26404-.0183-.39605-.0274l-.39605-.0274" fill="none" stroke="#ede4c5" stroke-width="4.8"/>
  <path d="m371.0432,75.68986c.71478,1.83188-1.26409,1.44457-1.74881,2.26655-.36199.61385-.5338,1.33255-.92928,1.92537-.20772.31137-.60224.45403-.84698.73723-.8755,1.01312-.038.64951-.92927,1.92538-.2143.30688-.61832.44089-.84697.73723-.0808.10477-.0183.26403-.0274.39605-.0274.39605.0903.83061-.0823,1.18815-.1627.33709-.65685.41482-.84697.73723-.13444.22798.0269.54039-.0549.7921-.0915.28142-.32229.49817-.45092.76466-.18189.37687-.23876.81761-.47835,1.16071-.2143.30688-.65684.41482-.84697.73723-.13444.22798.0602.55374-.0549.7921-.20739.4297-.63205.72228-.87441,1.13328-1.2905,2.18841.22877.26701-.92927,1.92538-.54634.78239-1.20247,1.48416-1.74882,2.26655-.16941.24261-.22772.57039-.45092.76466s-.59634.1469-.81953.34118-.27016.53039-.45092.76466c-.11432.14817-.30112.22701-.42349.36861-.31197.36101-.54435.78872-.8744,1.13328 .33475.86136-1.7158,1.12131-2.08999,1.44702-.2232.19427-.22772.57038-.45092.76466-.35989.31326-.88313.39653-1.24302.70979-.49908.43442-.79881,1.06747-1.29789,1.50189-.35989.31326-.88313.39653-1.24303.70979s-.51451.82002-.8744,1.13328c-.44639.38855-1.19267.2938-1.63907.68235-.8762.76268 1.25444.0547-.45092.76467-.12217.0509-.29623-.11432-.39604-.0274-.19964.17376.0796.56412-.0549.7921-.0951.1612-.32843.2074-.42349.36861-.14171.2403.032,1.34389-.10974,1.5842-.0951.1612-.32843.2074-.42349.36861-.0672.11399-.0183.26403-.0274.39605l-.0549.7921-.13718,1.98024c-.0265.38307-.0977,2.26291-.16461,2.3763-.0951.1612-.35218.19559-.42349.36861-.10085.24471.046.54741-.0549.7921-.0713.17303-.32842.20741-.42349.36862-.0672.11399.0398.28206-.0274.39605-.27055.45879-.9999.64704-1.27045,1.10584-.13445.22798.14475.61833-.0549.7921s-.54777-.15659-.7921-.0549c-.54616.22737-.30081.50985-.84698.73723-.12216.0509-.29622-.11435-.39605-.0274s.0724.30916-.0274.39604c-.19963.17377-.59247-.22863-.79209-.0549-.0999.0869.0724.30917-.0274.39605s-.27388-.0783-.39605-.0274c-.17278.0719-.25071.29669-.42349.36861-.12217.0509-.29623-.11434-.39605-.0274s.0724.30917-.0274.39605-.26403-.0183-.39606-.0274l-.39605-.0274" fill="none" stroke="#ede4c5" stroke-width="4.8"/>
  <path d="m314.24686,107.52946c2.02775-1.40393 1.8283-.95336 2.96439-2.5803 .16941-.24261.27016-.53038.45093-.76466 .40419-.52386.89369-.97804 1.29788-1.50189 .18076-.23428.25055-.54693.45092-.76467 .38019-.41312.92749-.66133 1.27046-1.10584 .25564-.33131.19498-.85278.47836-1.16071 .3231-.35109.85073-.43819 1.24302-.70979 .30774-.21306.59351-.46181.84697-.73723 .32309-.35109.48212-.86167.87441-1.13328 .34405-.23821.85218-.10623 1.21558-.31374 .11492-.06562-.0398-.28206.0274-.39605 .0951-.1612.30112-.22701.42349-.36861 .57856-.66949.92596-1.4163 1.72138-1.8705 .11491-.06562.28113.09306.39604.02743 .32503-.1856.53274-.53388.84697-.73723 .24843-.16076.56258-.19445.81954-.34118 .16251-.0928.26097-.27581.42349-.36861 .25695-.14673.56257-.19445.81952-.34118 .16253-.0928.26098-.27581.42349-.36861 .25697-.14673.57111-.18042.81954-.34118 .31423-.20335.52193-.55163.84697-.73723 .11491-.06562.27388.07829.39604.02743 .17278-.07192.25072-.29669.42349-.36861 .12217-.05086.27388.07829.39605.02744 .34555-.14385.50143-.59337.84697-.73723 .12217-.05086.29623.11432.39605.02744s-.0724-.30917.0274-.39605 .27387.07829.39605.02744c.17276-.07193.28232-.24574.42348-.36862s.35218-.19558.42348-.36861c.10086-.2447.0366-.52807.0549-.7921 .27318-.11373.63877-.1069.81953-.34118 .16168-.20954-.0796-.56412.0549-.7921 .0672-.11399.29623.11432.39605.02744 .22319-.19428.27016-.53039.45093-.76466 .11432-.14817.32842-.20741.42347-.36861 .0672-.11399-.0398-.28206.0274-.39605 .19012-.32241.61833-.44089.84697-.73723 .1723-.2233.72955-1.30602.90185-1.52933 .11432-.14817.36565-.19062.42348-.36861 .12269-.37757-.0223-.80517.0823-1.18815 .0779-.28546.33817-.49108.45092-.76466 .0504-.12235-.0398-.28206.0274-.39605 1.03184-1.74978-.28058,1.66923.8744-1.13328 .0957-.23219-.0408-.55991.0549-.7921 .11277-.27358.35948-.48324.45092-.76466 .0818-.25171-.046-.5474.0549-.7921 .0713-.17303.35218-.19558.42349-.36861 .10085-.2447-.0269-.54039.0549-.7921 .18287-.56285.67634-.98216.90184-1.52933 .0504-.12235-.0724-.30917.0274-.39605s.29623.11432.39605.02744c.19963-.17377-.14476-.61833.0549-.7921 .0999-.08688.29623.11432.39604.02744s-.0398-.28206.0274-.39605c.27055-.4588.99991-.64704 1.27046-1.10584 .0672-.11399-.0398-.28206.0274-.39605 .0951-.1612.30917-.22044.42349-.36861 .18076-.23428.27016-.53039.45092-.76466 .11433-.14817.30916-.22045.42349-.36861 .18075-.23428.22772-.57039.45091-.76466 .0998-.08688.29624.11432.39605.02744s-.0398-.28206.0274-.39605c.0951-.1612.32843-.20741.42349-.36861 .0672-.11399-.0398-.28206.0274-.39605 .19013-.32241.70436-.39117.84697-.73723 .10086-.2447-.046-.5474.0549-.7921 .49769-1.20765.25488.15031.81952-.34118 .0999-.08688-.0724-.30917.0274-.39605s.29624.11432.39605.02744c.41776-.36363-.75666-.84832.45092-.76466" fill="none" stroke="#ede4c5" stroke-width="4.8"/>
 </g>
 <path d="m55.801 244.97 405.73-0.794-0.794-38.112" fill="none" stroke="#905108" stroke-linecap="round" stroke-linejoin="round" stroke-width="4"/>
 <path d="m540.1 125.63 1.1229 40.424-76.356 149.34-462.07-49.968" fill="none" stroke="#7e5326" stroke-linecap="round" stroke-linejoin="round" stroke-width="4.2"/>
</svg>
